<svg xmlns="http://www.w3.org/2000/svg" version="1.1" id="Ebene_1" x="0px" y="0px" width="150px" height="60px" viewBox="0 0 146.835 58.393" style="background-color:white" enable-background="new 0 0 146.835 58.393" xml:space="preserve">
    <rect id="Freiraum" fill="none" width="146.835" height="58.393"></rect>
    <path fill="#006EC7" d="M29.465,33.902c-0.801,0.453-2.081,1.104-3.332,1.15c-1.836,0.066-1.794-1.715-1.794-2.898  c0-1.285,0.604-1.689,1.996-1.689h3.131V33.902z M33.708,26.633c0-4.243-1.565-6.121-6.886-6.121c-1.878,0-4.208,0.313-5.808,0.8  l0.521,3.234c1.496-0.313,3.165-0.521,4.695-0.521c2.713,0,3.235,0.474,3.235,2.353v0.87h-4.272c-3.443,0-4.735,2.412-4.735,5.854  c0,2.924,1.32,5.045,4.417,5.045c1.704,0,3.513-0.488,5.043-1.496l0.342,1.275h3.449V26.633z"></path>
    <path fill="#006EC7" d="M47.281,32.969c-0.914,0.844-2.425,1.547-3.831,1.547c-1.581,0-2.108-0.773-2.108-2.18v-6.045  c0-1.546,0.597-2.096,2.144-2.096c1.23,0,2.671,0.211,3.795,0.457V32.969z M37.055,32.23c0,3.9,1.827,5.939,5.271,5.939  c2.145,0,3.902-0.703,5.414-1.793l0.459,1.576h3.371V13.489l-4.287,0.598v6.946c-1.336-0.282-3.058-0.492-4.569-0.492  c-3.97,0-5.657,2.061-5.657,5.855V32.23z"></path>
    <path fill="#006EC7" d="M111.108,27.048v4.557c0,1.914-0.871,2.924-3.133,2.924c-2.259,0-3.129-1.01-3.129-2.924v-4.557  c0-1.913,0.87-2.922,3.129-2.922C110.237,24.126,111.108,25.135,111.108,27.048 M115.352,31.467v-4.279  c0-3.479-1.565-6.679-7.376-6.679c-5.809,0-7.373,3.2-7.373,6.679v4.279c0,3.479,1.564,6.68,7.373,6.68  C113.786,38.146,115.352,34.945,115.352,31.467"></path>
    <path fill="#006EC7" d="M83.241,32.586c-0.164-3.466-0.645-4.069-5.417-5.094c-2.314-0.482-2.423-0.581-2.487-1.933  c-0.049-1.04,0.242-1.471,2.079-1.557c1.317-0.063,3.374,0.084,4.669,0.266l0.256-3.382c-1.473-0.313-3.527-0.424-5.088-0.351  c-4.816,0.228-6.238,1.788-6.078,5.186c0.154,3.258,0.688,4.275,4.86,5.085c2.769,0.529,3.001,1.039,3.052,2.08  c0.061,1.283-0.197,1.711-2.07,1.801c-1.732,0.082-3.619-0.143-5.059-0.492l-0.438,3.252c1.587,0.482,4.066,0.781,5.868,0.695  C82.484,37.902,83.396,35.846,83.241,32.586"></path>
    <path fill="#006EC7" d="M98.061,32.588c-0.165-3.467-0.644-4.07-5.417-5.096c-2.314-0.481-2.424-0.58-2.488-1.932  c-0.049-1.04,0.244-1.472,2.08-1.558c1.318-0.063,3.374,0.084,4.668,0.266l0.258-3.381c-1.475-0.313-3.529-0.425-5.088-0.352  c-4.818,0.228-6.238,1.789-6.078,5.186c0.154,3.258,0.688,4.275,4.859,5.085c2.769,0.529,3.002,1.039,3.051,2.08  c0.061,1.283-0.197,1.713-2.068,1.801c-1.732,0.082-3.62-0.143-5.061-0.492l-0.438,3.252c1.587,0.482,4.067,0.781,5.869,0.697  C97.303,37.902,98.214,35.846,98.061,32.588"></path>
    <path fill="#006EC7" d="M59.161,26.708c0-1.602,0.73-2.715,2.818-2.715c2.087,0,2.574,1.113,2.574,2.715v0.835h-5.393V26.708z   M59.161,31.824v-0.871h9.428v-3.619c0-3.654-1.218-6.82-6.645-6.82c-5.428,0-7.028,3.027-7.028,6.611v4.49  c0,4.07,1.844,6.541,7.167,6.541c2.018,0,3.705-0.188,5.619-0.918l0.45-3.176c-2.25,0.625-3.959,0.957-5.626,0.791  C59.963,34.598,59.161,33.877,59.161,31.824"></path>
    <polygon fill="#888279" points="124.853,11.019 124.853,40.404 114.397,50.58 116.728,50.58 126.436,41.07 126.436,11.019"></polygon>
</svg>
